<?xml version="1.0" encoding="utf-8"?>
<!-- Generator: Adobe Illustrator 16.0.3, SVG Export Plug-In . SVG Version: 6.00 Build 0)  -->
<!DOCTYPE svg PUBLIC "-//W3C//DTD SVG 1.1//EN" "http://www.w3.org/Graphics/SVG/1.1/DTD/svg11.dtd">
<svg version="1.1" id="Layer_1" xmlns="http://www.w3.org/2000/svg" xmlns:xlink="http://www.w3.org/1999/xlink" x="0px" y="0px"
	 width="612px" height="792px" viewBox="0 0 612 792" enable-background="new 0 0 612 792" xml:space="preserve">
<path d="M461.166,278.167c9-17.5,24-33.5,24-33.5s-19.25-0.25-64.75,33s-88.25,87.5-89.25,88.75
	c-0.422,0.529-8.182,9.378-18.66,21.515c-2.303-3.274-5.73-7.728-10.839-13.765c-29-24.5-55-24-71.5-21s-32.5,21.5-33,25.5
	c21-15,26.5-11.5,30-10.5s15.5,6.5-3,31.5c-10,12-10.5,19-10.5,19s7-10,11.5-11s8.5,4.5,6,16.5s-4,17-2.5,20c4-8.5,13.5-13,19,0
	c2.059,4.491,4.515,8.749,7.258,12.77c-14.577,17.271-22.354,23.982-26.008,27.23c-4.5,4-19.5,20.25-38.75,27.5
	c-41.75,15.75-55,0.75-62-4.5s-8.5-24.25,5.75-26c26.25-0.5,28.5-17.5,27.5-28.5s-20.75-26.75-55.5-17.5s-35,33.25-35,33.25
	s0,1.25,1.75-3s7.75-13.25,20-14.5s7.25,18.75,5,24s-6.25,8-6.25,8s0,0,7.75-1.25c8,0,5.5,19.25,5.5,19.25s2.25,6,2.25,4.75
	c-0.25-8,4.75-13.25,10.5-4s22.5,26.75,59.5,19.5s78.25-57,78.25-57l2.658-3.23c19.539,25.75,50.263,40.815,59.841,43.73
	c11.5,3.5,8.5,15,8.5,15h55l-14-11.5c0,0,16.5-2.5,31.5-9.5s18-17,20.5-30.5c-2.5,7.5-8.5,18-20,26s-32,8-32,8s19-51.5,40-106
	S452.166,295.667,461.166,278.167z M247.167,419.667c-2-17.5,20-39.5,37-41.28c10.361-1.085,20.347,5.942,26.568,11.596
	c-14.087,16.338-32.39,37.823-44.568,53.184c-2.864,3.613-5.533,6.905-8.027,9.92C251.63,441.803,248.318,429.741,247.167,419.667z
	 M369.666,420.667c0,0-32,65.5-37.5,74.5s-10.5,6-20,2.5c-9.5-3.5-16.363-9.104-34-22c-7.198-5.267-12.912-11.584-17.389-18.318
	l14.139-17.182c0,0,32.583-39.5,37.75-45.333c0.697-0.787,1.275-1.165,1.764-1.242c0.598,0.628,1.111,1.189,1.521,1.652
	c0.104,0.118,0.186,0.212,0.277,0.317c1.061,3.531,0.867,10.728,1.605,12.938c1.166,3.5,3.832,4.167,3.832,4.167v-9.5
	c0,0,0-5.5,10-6s22.5-3.5,22.5-3.5s6.5-4,4.5,7s-2,14.5-2,14.5c3.5-2,8-11,11-19C376.666,404.667,369.666,420.667,369.666,420.667z
	 M382.166,385.216c-6.25-7.451-14-6.299-20.5-3.799s-24.25,7.5-32.5,8.75s-3.75-10-3.75-10s15.5-20.5,26.75-34.25
	c59.5-62.25,93-80.25,93-80.25l25-14.25c0,0-8.75,12.75-25.5,36.5c-20.25,24.75-52.25,90.25-53.75,93.25
	S385.916,387.417,382.166,385.216z"/>
</svg>
